<?xml version="1.0" standalone="no"?>
<!DOCTYPE svg PUBLIC "-//W3C//DTD SVG 20010904//EN"
 "http://www.w3.org/TR/2001/REC-SVG-20010904/DTD/svg10.dtd">
<svg version="1.0" xmlns="http://www.w3.org/2000/svg"
 width="505.000000pt" height="505.000000pt" viewBox="0 0 505.000000 505.000000"
 preserveAspectRatio="xMidYMid meet">
<metadata>
Created by potrace 1.14, written by Peter Selinger 2001-2017
</metadata>
<g transform="translate(0.000000,505.000000) scale(0.100000,-0.100000)"
fill="#000000" stroke="none">
<path d="M611 2515 c0 -1635 3 -2125 12 -2126 7 0 365 -1 797 -1 702 0 931 4
1041 17 19 3 57 7 84 10 28 3 75 10 105 16 30 5 73 12 95 15 76 10 291 67 420
111 143 50 442 190 475 223 3 3 32 23 65 44 52 34 169 121 201 151 104 95 189
185 278 295 135 168 298 508 332 695 3 15 11 55 19 89 7 33 16 81 19 106 3 25
8 54 10 65 2 11 7 66 10 121 6 92 5 102 -11 105 -10 3 -452 4 -983 4 l-965 -1
0 -319 0 -320 378 1 c207 0 377 -4 377 -8 0 -24 -140 -186 -210 -243 -134
-108 -299 -189 -486 -238 -96 -25 -114 -29 -198 -42 -21 -4 -47 -8 -58 -10
-74 -15 -738 -28 -790 -17 -17 4 -18 72 -18 1257 l0 1252 348 -2 c393 -3 480
-11 702 -65 101 -24 220 -71 315 -122 22 -12 50 -27 62 -33 13 -5 23 -13 23
-17 0 -5 7 -8 15 -8 8 0 15 -4 15 -8 0 -4 15 -16 32 -27 59 -34 188 -174 249
-268 66 -102 132 -259 151 -360 12 -65 14 -67 43 -68 43 0 922 -1 967 0 25 1
36 5 33 14 -2 6 -7 30 -10 52 -3 22 -8 56 -11 75 -24 157 -105 402 -178 535
-66 119 -79 141 -134 220 -264 381 -684 670 -1190 820 -64 19 -128 37 -142 40
-37 8 -171 35 -200 40 -14 3 -34 7 -45 9 -11 2 -47 7 -80 10 -33 4 -78 9 -100
12 -22 2 -67 7 -100 11 -33 3 -443 7 -912 9 l-852 3 0 -2124z"/>
</g>
</svg>
